<mxfile host="Electron" agent="Mozilla/5.0 (Windows NT 10.0; Win64; x64) AppleWebKit/537.36 (KHTML, like Gecko) draw.io/26.0.15 Chrome/132.0.6834.196 Electron/34.2.0 Safari/537.36" version="26.0.15">
  <diagram name="Страница — 1" id="UI_bWxTD1ghXTzAJOjOJ">
    <mxGraphModel dx="2977" dy="1048" grid="1" gridSize="10" guides="1" tooltips="1" connect="1" arrows="1" fold="1" page="1" pageScale="1" pageWidth="827" pageHeight="1169" math="0" shadow="0">
      <root>
        <mxCell id="0" />
        <mxCell id="1" parent="0" />
        <mxCell id="FwPt4kaaaoxJ7pNveMdv-1" value="&lt;font style=&quot;font-size: 15px;&quot;&gt;Menu&lt;/font&gt;" style="rounded=0;whiteSpace=wrap;html=1;" parent="1" vertex="1">
          <mxGeometry x="332" y="40" width="90" height="40" as="geometry" />
        </mxCell>
        <mxCell id="FwPt4kaaaoxJ7pNveMdv-2" value="&lt;font style=&quot;font-size: 15px;&quot;&gt;Game&lt;/font&gt;" style="rounded=0;whiteSpace=wrap;html=1;" parent="1" vertex="1">
          <mxGeometry x="-100" y="120" width="90" height="40" as="geometry" />
        </mxCell>
        <mxCell id="FwPt4kaaaoxJ7pNveMdv-17" value="" style="endArrow=classic;html=1;rounded=0;exitX=0.5;exitY=1;exitDx=0;exitDy=0;entryX=0.5;entryY=0;entryDx=0;entryDy=0;jumpSize=6;strokeWidth=3;" parent="1" source="FwPt4kaaaoxJ7pNveMdv-1" target="FwPt4kaaaoxJ7pNveMdv-2" edge="1">
          <mxGeometry width="50" height="50" relative="1" as="geometry">
            <mxPoint x="330" y="250" as="sourcePoint" />
            <mxPoint x="380" y="200" as="targetPoint" />
          </mxGeometry>
        </mxCell>
        <mxCell id="FwPt4kaaaoxJ7pNveMdv-42" value="" style="endArrow=classic;html=1;rounded=0;entryX=0.5;entryY=0;entryDx=0;entryDy=0;jumpSize=6;strokeWidth=3;exitX=0.5;exitY=1;exitDx=0;exitDy=0;" parent="1" source="-v-FeaUxsi9AabH1ScJe-1" target="-v-FeaUxsi9AabH1ScJe-25" edge="1">
          <mxGeometry width="50" height="50" relative="1" as="geometry">
            <mxPoint x="800" y="100" as="sourcePoint" />
            <mxPoint x="660" y="-10" as="targetPoint" />
          </mxGeometry>
        </mxCell>
        <mxCell id="-v-FeaUxsi9AabH1ScJe-1" value="&lt;font style=&quot;font-size: 15px;&quot;&gt;MiniGame&lt;/font&gt;" style="rounded=0;whiteSpace=wrap;html=1;" vertex="1" parent="1">
          <mxGeometry x="780" y="120" width="90" height="40" as="geometry" />
        </mxCell>
        <mxCell id="-v-FeaUxsi9AabH1ScJe-2" value="" style="endArrow=classic;html=1;rounded=0;exitX=0.5;exitY=1;exitDx=0;exitDy=0;entryX=0.5;entryY=0;entryDx=0;entryDy=0;jumpSize=6;strokeWidth=3;" edge="1" parent="1" source="FwPt4kaaaoxJ7pNveMdv-1" target="-v-FeaUxsi9AabH1ScJe-1">
          <mxGeometry width="50" height="50" relative="1" as="geometry">
            <mxPoint x="395" y="90" as="sourcePoint" />
            <mxPoint x="235" y="130" as="targetPoint" />
          </mxGeometry>
        </mxCell>
        <mxCell id="-v-FeaUxsi9AabH1ScJe-5" value="" style="group" vertex="1" connectable="0" parent="1">
          <mxGeometry x="-620" y="210" width="330" height="230" as="geometry" />
        </mxCell>
        <mxCell id="-v-FeaUxsi9AabH1ScJe-3" value="" style="rounded=0;whiteSpace=wrap;html=1;fillColor=none;" vertex="1" parent="-v-FeaUxsi9AabH1ScJe-5">
          <mxGeometry y="31.91" width="330" height="148.09" as="geometry" />
        </mxCell>
        <mxCell id="-v-FeaUxsi9AabH1ScJe-4" value="&lt;font style=&quot;font-size: 15px;&quot;&gt;Animatronics&#39; behavior&lt;/font&gt;" style="text;html=1;align=center;verticalAlign=middle;whiteSpace=wrap;rounded=0;" vertex="1" parent="-v-FeaUxsi9AabH1ScJe-5">
          <mxGeometry x="23.222222222222225" width="281.11111111111114" height="33.01435406698565" as="geometry" />
        </mxCell>
        <mxCell id="-v-FeaUxsi9AabH1ScJe-8" value="&lt;font style=&quot;font-size: 15px;&quot;&gt;Animatronic&lt;/font&gt;" style="rounded=0;whiteSpace=wrap;html=1;" vertex="1" parent="-v-FeaUxsi9AabH1ScJe-5">
          <mxGeometry x="10" y="53.28185328185328" width="90" height="35.521235521235525" as="geometry" />
        </mxCell>
        <mxCell id="-v-FeaUxsi9AabH1ScJe-7" value="&lt;font style=&quot;font-size: 15px;&quot;&gt;Fox&lt;/font&gt;" style="rounded=0;whiteSpace=wrap;html=1;" vertex="1" parent="-v-FeaUxsi9AabH1ScJe-5">
          <mxGeometry x="120" y="53.28185328185328" width="90" height="35.521235521235525" as="geometry" />
        </mxCell>
        <mxCell id="-v-FeaUxsi9AabH1ScJe-6" value="&lt;font style=&quot;font-size: 15px;&quot;&gt;Fredd&lt;/font&gt;" style="rounded=0;whiteSpace=wrap;html=1;" vertex="1" parent="-v-FeaUxsi9AabH1ScJe-5">
          <mxGeometry x="230" y="53.28185328185328" width="90" height="35.521235521235525" as="geometry" />
        </mxCell>
        <mxCell id="-v-FeaUxsi9AabH1ScJe-9" value="&lt;font style=&quot;font-size: 15px;&quot;&gt;Random&lt;/font&gt;" style="rounded=0;whiteSpace=wrap;html=1;" vertex="1" parent="-v-FeaUxsi9AabH1ScJe-5">
          <mxGeometry x="118.77999999999997" y="119.99555984555985" width="90" height="35.521235521235525" as="geometry" />
        </mxCell>
        <mxCell id="-v-FeaUxsi9AabH1ScJe-10" value="" style="group" vertex="1" connectable="0" parent="1">
          <mxGeometry x="-250" y="210" width="330" height="230" as="geometry" />
        </mxCell>
        <mxCell id="-v-FeaUxsi9AabH1ScJe-11" value="" style="rounded=0;whiteSpace=wrap;html=1;fillColor=none;" vertex="1" parent="-v-FeaUxsi9AabH1ScJe-10">
          <mxGeometry y="31.91" width="330" height="148.09" as="geometry" />
        </mxCell>
        <mxCell id="-v-FeaUxsi9AabH1ScJe-12" value="&lt;font style=&quot;font-size: 15px;&quot;&gt;Player&#39;s actions&lt;/font&gt;" style="text;html=1;align=center;verticalAlign=middle;whiteSpace=wrap;rounded=0;" vertex="1" parent="-v-FeaUxsi9AabH1ScJe-10">
          <mxGeometry x="23.222222222222225" width="281.11111111111114" height="33.01435406698565" as="geometry" />
        </mxCell>
        <mxCell id="-v-FeaUxsi9AabH1ScJe-13" value="&lt;font style=&quot;font-size: 15px;&quot;&gt;Player&lt;/font&gt;" style="rounded=0;whiteSpace=wrap;html=1;" vertex="1" parent="-v-FeaUxsi9AabH1ScJe-10">
          <mxGeometry x="10" y="53.28185328185328" width="90" height="35.521235521235525" as="geometry" />
        </mxCell>
        <mxCell id="-v-FeaUxsi9AabH1ScJe-14" value="&lt;font style=&quot;font-size: 15px;&quot;&gt;Cam&lt;/font&gt;" style="rounded=0;whiteSpace=wrap;html=1;" vertex="1" parent="-v-FeaUxsi9AabH1ScJe-10">
          <mxGeometry x="120" y="53.28185328185328" width="90" height="35.521235521235525" as="geometry" />
        </mxCell>
        <mxCell id="-v-FeaUxsi9AabH1ScJe-15" value="&lt;font style=&quot;font-size: 15px;&quot;&gt;Door&lt;/font&gt;" style="rounded=0;whiteSpace=wrap;html=1;" vertex="1" parent="-v-FeaUxsi9AabH1ScJe-10">
          <mxGeometry x="230" y="53.28185328185328" width="90" height="35.521235521235525" as="geometry" />
        </mxCell>
        <mxCell id="-v-FeaUxsi9AabH1ScJe-16" value="&lt;font style=&quot;font-size: 15px;&quot;&gt;Phone&lt;/font&gt;" style="rounded=0;whiteSpace=wrap;html=1;" vertex="1" parent="-v-FeaUxsi9AabH1ScJe-10">
          <mxGeometry x="118.77999999999997" y="119.99555984555985" width="90" height="35.521235521235525" as="geometry" />
        </mxCell>
        <mxCell id="-v-FeaUxsi9AabH1ScJe-17" value="&lt;font style=&quot;font-size: 15px;&quot;&gt;Picture&lt;/font&gt;" style="rounded=0;whiteSpace=wrap;html=1;" vertex="1" parent="1">
          <mxGeometry x="110" y="240" width="90" height="40" as="geometry" />
        </mxCell>
        <mxCell id="-v-FeaUxsi9AabH1ScJe-18" value="&lt;font style=&quot;font-size: 15px;&quot;&gt;Energy&lt;/font&gt;" style="rounded=0;whiteSpace=wrap;html=1;" vertex="1" parent="1">
          <mxGeometry x="250" y="240" width="90" height="40" as="geometry" />
        </mxCell>
        <mxCell id="-v-FeaUxsi9AabH1ScJe-19" value="" style="endArrow=classic;html=1;rounded=0;entryX=0.5;entryY=0;entryDx=0;entryDy=0;jumpSize=6;strokeWidth=3;exitX=0.5;exitY=1;exitDx=0;exitDy=0;" edge="1" parent="1" source="FwPt4kaaaoxJ7pNveMdv-2" target="-v-FeaUxsi9AabH1ScJe-4">
          <mxGeometry width="50" height="50" relative="1" as="geometry">
            <mxPoint x="810" y="110" as="sourcePoint" />
            <mxPoint x="670" as="targetPoint" />
          </mxGeometry>
        </mxCell>
        <mxCell id="-v-FeaUxsi9AabH1ScJe-20" value="" style="endArrow=classic;html=1;rounded=0;entryX=0.5;entryY=0;entryDx=0;entryDy=0;jumpSize=6;strokeWidth=3;exitX=0.5;exitY=1;exitDx=0;exitDy=0;" edge="1" parent="1" source="FwPt4kaaaoxJ7pNveMdv-2" target="-v-FeaUxsi9AabH1ScJe-12">
          <mxGeometry width="50" height="50" relative="1" as="geometry">
            <mxPoint x="332" y="220" as="sourcePoint" />
            <mxPoint x="192" y="110" as="targetPoint" />
          </mxGeometry>
        </mxCell>
        <mxCell id="-v-FeaUxsi9AabH1ScJe-21" value="" style="endArrow=classic;html=1;rounded=0;entryX=0.5;entryY=0;entryDx=0;entryDy=0;jumpSize=6;strokeWidth=3;exitX=0.5;exitY=1;exitDx=0;exitDy=0;" edge="1" parent="1" source="FwPt4kaaaoxJ7pNveMdv-2" target="-v-FeaUxsi9AabH1ScJe-17">
          <mxGeometry width="50" height="50" relative="1" as="geometry">
            <mxPoint x="440" y="250" as="sourcePoint" />
            <mxPoint x="300" y="140" as="targetPoint" />
          </mxGeometry>
        </mxCell>
        <mxCell id="-v-FeaUxsi9AabH1ScJe-22" value="" style="endArrow=classic;html=1;rounded=0;entryX=0.5;entryY=0;entryDx=0;entryDy=0;jumpSize=6;strokeWidth=3;exitX=0.5;exitY=1;exitDx=0;exitDy=0;" edge="1" parent="1" source="FwPt4kaaaoxJ7pNveMdv-2" target="-v-FeaUxsi9AabH1ScJe-18">
          <mxGeometry width="50" height="50" relative="1" as="geometry">
            <mxPoint x="280" y="250" as="sourcePoint" />
            <mxPoint x="140" y="140" as="targetPoint" />
          </mxGeometry>
        </mxCell>
        <mxCell id="-v-FeaUxsi9AabH1ScJe-23" value="" style="group" vertex="1" connectable="0" parent="1">
          <mxGeometry x="440" y="210" width="330" height="230" as="geometry" />
        </mxCell>
        <mxCell id="-v-FeaUxsi9AabH1ScJe-24" value="" style="rounded=0;whiteSpace=wrap;html=1;fillColor=none;" vertex="1" parent="-v-FeaUxsi9AabH1ScJe-23">
          <mxGeometry y="31.91" width="330" height="128.09" as="geometry" />
        </mxCell>
        <mxCell id="-v-FeaUxsi9AabH1ScJe-25" value="&lt;font style=&quot;font-size: 15px;&quot;&gt;MiniPlayers&lt;/font&gt;" style="text;html=1;align=center;verticalAlign=middle;whiteSpace=wrap;rounded=0;" vertex="1" parent="-v-FeaUxsi9AabH1ScJe-23">
          <mxGeometry x="23.222222222222225" width="281.11111111111114" height="33.01435406698565" as="geometry" />
        </mxCell>
        <mxCell id="-v-FeaUxsi9AabH1ScJe-26" value="&lt;font style=&quot;font-size: 15px;&quot;&gt;MiniPlayer&lt;/font&gt;" style="rounded=0;whiteSpace=wrap;html=1;" vertex="1" parent="-v-FeaUxsi9AabH1ScJe-23">
          <mxGeometry x="118.78" y="50.001853281853286" width="90" height="35.521235521235525" as="geometry" />
        </mxCell>
        <mxCell id="-v-FeaUxsi9AabH1ScJe-27" value="&lt;font style=&quot;font-size: 15px;&quot;&gt;MiniWarrior&lt;/font&gt;" style="rounded=0;whiteSpace=wrap;html=1;" vertex="1" parent="-v-FeaUxsi9AabH1ScJe-23">
          <mxGeometry x="120" y="101.99185328185328" width="90" height="35.521235521235525" as="geometry" />
        </mxCell>
        <mxCell id="-v-FeaUxsi9AabH1ScJe-28" value="&lt;font style=&quot;font-size: 15px;&quot;&gt;MiniRogue&lt;/font&gt;" style="rounded=0;whiteSpace=wrap;html=1;" vertex="1" parent="-v-FeaUxsi9AabH1ScJe-23">
          <mxGeometry x="230" y="101.99185328185328" width="90" height="35.521235521235525" as="geometry" />
        </mxCell>
        <mxCell id="-v-FeaUxsi9AabH1ScJe-29" value="&lt;font style=&quot;font-size: 15px;&quot;&gt;MiniMage&lt;/font&gt;" style="rounded=0;whiteSpace=wrap;html=1;" vertex="1" parent="-v-FeaUxsi9AabH1ScJe-23">
          <mxGeometry x="9.999999999999972" y="101.99555984555985" width="90" height="35.521235521235525" as="geometry" />
        </mxCell>
        <mxCell id="-v-FeaUxsi9AabH1ScJe-37" value="" style="group" vertex="1" connectable="0" parent="1">
          <mxGeometry x="770" y="210" width="330" height="230" as="geometry" />
        </mxCell>
        <mxCell id="-v-FeaUxsi9AabH1ScJe-38" value="" style="rounded=0;whiteSpace=wrap;html=1;fillColor=none;" vertex="1" parent="-v-FeaUxsi9AabH1ScJe-37">
          <mxGeometry x="60" y="31.91" width="210" height="128.09" as="geometry" />
        </mxCell>
        <mxCell id="-v-FeaUxsi9AabH1ScJe-39" value="&lt;font style=&quot;font-size: 15px;&quot;&gt;MiniEnemies&lt;/font&gt;" style="text;html=1;align=center;verticalAlign=middle;whiteSpace=wrap;rounded=0;" vertex="1" parent="-v-FeaUxsi9AabH1ScJe-37">
          <mxGeometry x="23.222222222222225" width="281.11111111111114" height="33.01435406698565" as="geometry" />
        </mxCell>
        <mxCell id="-v-FeaUxsi9AabH1ScJe-40" value="&lt;font style=&quot;font-size: 15px;&quot;&gt;MiniEnemy&lt;/font&gt;" style="rounded=0;whiteSpace=wrap;html=1;" vertex="1" parent="-v-FeaUxsi9AabH1ScJe-37">
          <mxGeometry x="118.78" y="50.001853281853286" width="90" height="35.521235521235525" as="geometry" />
        </mxCell>
        <mxCell id="-v-FeaUxsi9AabH1ScJe-41" value="&lt;font style=&quot;font-size: 15px;&quot;&gt;MiniGoblin&lt;/font&gt;" style="rounded=0;whiteSpace=wrap;html=1;" vertex="1" parent="-v-FeaUxsi9AabH1ScJe-37">
          <mxGeometry x="120" y="101.99185328185328" width="90" height="35.521235521235525" as="geometry" />
        </mxCell>
        <mxCell id="-v-FeaUxsi9AabH1ScJe-44" value="&lt;font style=&quot;font-size: 15px;&quot;&gt;MiniBattleSystem&lt;/font&gt;" style="rounded=0;whiteSpace=wrap;html=1;" vertex="1" parent="1">
          <mxGeometry x="1390" y="240" width="130" height="40" as="geometry" />
        </mxCell>
        <mxCell id="-v-FeaUxsi9AabH1ScJe-45" value="" style="group" vertex="1" connectable="0" parent="1">
          <mxGeometry x="1040" y="210" width="330" height="230" as="geometry" />
        </mxCell>
        <mxCell id="-v-FeaUxsi9AabH1ScJe-46" value="" style="rounded=0;whiteSpace=wrap;html=1;fillColor=none;" vertex="1" parent="-v-FeaUxsi9AabH1ScJe-45">
          <mxGeometry x="60" y="31.91" width="210" height="128.09" as="geometry" />
        </mxCell>
        <mxCell id="-v-FeaUxsi9AabH1ScJe-47" value="&lt;font style=&quot;font-size: 15px;&quot;&gt;MiniAbilities&lt;/font&gt;" style="text;html=1;align=center;verticalAlign=middle;whiteSpace=wrap;rounded=0;" vertex="1" parent="-v-FeaUxsi9AabH1ScJe-45">
          <mxGeometry x="23.222222222222225" width="281.11111111111114" height="33.01435406698565" as="geometry" />
        </mxCell>
        <mxCell id="-v-FeaUxsi9AabH1ScJe-48" value="&lt;font style=&quot;font-size: 15px;&quot;&gt;MiniAbility&lt;/font&gt;" style="rounded=0;whiteSpace=wrap;html=1;" vertex="1" parent="-v-FeaUxsi9AabH1ScJe-45">
          <mxGeometry x="118.78" y="50.001853281853286" width="90" height="35.521235521235525" as="geometry" />
        </mxCell>
        <mxCell id="-v-FeaUxsi9AabH1ScJe-49" value="&lt;font style=&quot;font-size: 15px;&quot;&gt;MiniEffect&lt;/font&gt;" style="rounded=0;whiteSpace=wrap;html=1;" vertex="1" parent="-v-FeaUxsi9AabH1ScJe-45">
          <mxGeometry x="120" y="101.99185328185328" width="90" height="35.521235521235525" as="geometry" />
        </mxCell>
        <mxCell id="-v-FeaUxsi9AabH1ScJe-50" value="" style="endArrow=classic;html=1;rounded=0;entryX=0.5;entryY=0;entryDx=0;entryDy=0;jumpSize=6;strokeWidth=3;exitX=0.5;exitY=1;exitDx=0;exitDy=0;" edge="1" parent="1" source="-v-FeaUxsi9AabH1ScJe-1" target="-v-FeaUxsi9AabH1ScJe-39">
          <mxGeometry width="50" height="50" relative="1" as="geometry">
            <mxPoint x="830" y="160" as="sourcePoint" />
            <mxPoint x="670" as="targetPoint" />
          </mxGeometry>
        </mxCell>
        <mxCell id="-v-FeaUxsi9AabH1ScJe-51" value="" style="endArrow=classic;html=1;rounded=0;entryX=0.25;entryY=0;entryDx=0;entryDy=0;jumpSize=6;strokeWidth=3;exitX=0.5;exitY=1;exitDx=0;exitDy=0;" edge="1" parent="1" source="-v-FeaUxsi9AabH1ScJe-1" target="-v-FeaUxsi9AabH1ScJe-47">
          <mxGeometry width="50" height="50" relative="1" as="geometry">
            <mxPoint x="820" y="120" as="sourcePoint" />
            <mxPoint x="680" y="10" as="targetPoint" />
          </mxGeometry>
        </mxCell>
        <mxCell id="-v-FeaUxsi9AabH1ScJe-52" value="" style="endArrow=classic;html=1;rounded=0;entryX=0.5;entryY=0;entryDx=0;entryDy=0;jumpSize=6;strokeWidth=3;exitX=0.5;exitY=1;exitDx=0;exitDy=0;" edge="1" parent="1" source="-v-FeaUxsi9AabH1ScJe-1" target="-v-FeaUxsi9AabH1ScJe-44">
          <mxGeometry width="50" height="50" relative="1" as="geometry">
            <mxPoint x="830" y="130" as="sourcePoint" />
            <mxPoint x="690" y="20" as="targetPoint" />
          </mxGeometry>
        </mxCell>
      </root>
    </mxGraphModel>
  </diagram>
</mxfile>
